<svg xmlns="http://www.w3.org/2000/svg" width="46" height="46" viewBox="0 0 46 46"><g transform="translate(9.957 -72)"><g transform="translate(-9.957 72)" fill="#be209b" stroke="#fff" stroke-width="2"><circle cx="23" cy="23" r="23" stroke="none"/><circle cx="23" cy="23" r="22" fill="none"/></g><g transform="translate(-1.331 109.371) rotate(-90)" style="isolation:isolate"><path d="M28.67,8.452A10.5,10.5,0,0,0,28,4.964,7.364,7.364,0,0,0,23.8.758,10.532,10.532,0,0,0,20.308.09C18.769.017,18.28,0,14.377,0S9.985.017,8.452.084A10.508,10.508,0,0,0,4.965.752a7.014,7.014,0,0,0-2.55,1.662A7.078,7.078,0,0,0,.758,4.959,10.533,10.533,0,0,0,.09,8.446C.017,9.985,0,10.474,0,14.377S.017,18.769.084,20.3A10.5,10.5,0,0,0,.753,23.79,7.363,7.363,0,0,0,4.959,28a10.533,10.533,0,0,0,3.488.668c1.533.068,2.022.084,5.925.084s4.392-.017,5.925-.084A10.5,10.5,0,0,0,23.784,28,7.353,7.353,0,0,0,27.99,23.79a10.54,10.54,0,0,0,.668-3.488c.067-1.533.084-2.022.084-5.925s-.006-4.392-.073-5.925ZM26.081,20.19a7.88,7.88,0,0,1-.494,2.668,4.769,4.769,0,0,1-2.729,2.729,7.908,7.908,0,0,1-2.668.494c-1.516.068-1.971.084-5.807.084s-4.3-.017-5.807-.084a7.876,7.876,0,0,1-2.668-.494,4.424,4.424,0,0,1-1.651-1.073,4.47,4.47,0,0,1-1.073-1.651A7.909,7.909,0,0,1,2.69,20.2c-.068-1.516-.084-1.971-.084-5.807s.017-4.3.084-5.807a7.876,7.876,0,0,1,.494-2.668A4.37,4.37,0,0,1,4.263,4.263,4.463,4.463,0,0,1,5.914,3.19,7.913,7.913,0,0,1,8.581,2.7c1.516-.067,1.971-.084,5.807-.084s4.3.017,5.807.084a7.88,7.88,0,0,1,2.668.494,4.421,4.421,0,0,1,1.651,1.073,4.469,4.469,0,0,1,1.073,1.651,7.912,7.912,0,0,1,.494,2.668c.067,1.516.084,1.971.084,5.807s-.017,4.285-.084,5.8Zm0,0" fill="#fff"/><path d="M7.385,0A7.385,7.385,0,1,0,14.77,7.385,7.387,7.387,0,0,0,7.385,0Zm0,12.176a4.791,4.791,0,1,1,4.79-4.791A4.791,4.791,0,0,1,7.385,12.176Zm0,0" transform="translate(6.992 6.992)" fill="#fff"/><path d="M3.448,1.724A1.724,1.724,0,1,1,1.724,0,1.724,1.724,0,0,1,3.448,1.724Zm0,0" transform="translate(20.33 4.976)" fill="#fff"/></g></g></svg>