<svg xmlns="http://www.w3.org/2000/svg" width="46" height="46" viewBox="0 0 46 46"><g transform="translate(-0.041)"><g transform="translate(0.041)" fill="#5a9234" stroke="#fff" stroke-width="2"><circle cx="23" cy="23" r="23" stroke="none"/><circle cx="23" cy="23" r="22" fill="none"/></g><g transform="translate(14.153 38) rotate(-90)"><path d="M18.384.278a16.083,16.083,0,0,1,2.467.578,16.885,16.885,0,0,1,4,1.826.614.614,0,0,0,.307.089c1.474.006,2.948,0,4.421.005.119,0,.237.012.355.019,0,.029,0,.041,0,.048-.069.106-.138.21-.208.316a9.043,9.043,0,0,0-1.18,2.456.283.283,0,0,0,.031.268,7.336,7.336,0,0,1,1.183,6.184,7.313,7.313,0,0,1-3.306,4.561,7.41,7.41,0,0,1-4,1.148,6.981,6.981,0,0,1-1.795-.23,7.526,7.526,0,0,1-3.685-2.174c-.134-.142-.26-.291-.4-.452l-1.606,2.4-1.58-2.361a.4.4,0,0,0-.053.028.245.245,0,0,0-.031.033A7.447,7.447,0,0,1,8.651,17.65a7.274,7.274,0,0,1-3.1-.174,7.527,7.527,0,0,1-5.45-6.1A7.26,7.26,0,0,1,.235,8.409,7.553,7.553,0,0,1,1.4,5.869a.293.293,0,0,0,.033-.218A8.393,8.393,0,0,0,.384,3.385C.27,3.2.134,3.038.008,2.865V2.8a.638.638,0,0,0,.075.008q2.263,0,4.525,0A.383.383,0,0,0,4.8,2.748,16.253,16.253,0,0,1,8.178,1.109,18.343,18.343,0,0,1,10.8.4,20.99,20.99,0,0,1,13.4.057,22.109,22.109,0,0,1,18.384.278ZM16.493,10.24a5.987,5.987,0,1,0,5.86-5.963A6,6,0,0,0,16.493,10.24ZM7.511,4.254A5.98,5.98,0,1,0,13.5,10.26,5.987,5.987,0,0,0,7.511,4.254Zm.3-1.563A7.639,7.639,0,0,1,15,9.219a7.611,7.611,0,0,1,7.08-6.494,17.029,17.029,0,0,0-6.67-1.39A18.471,18.471,0,0,0,7.808,2.691Z" fill="#fff"/><path d="M3.718,0A3.709,3.709,0,1,1,0,3.706,3.7,3.7,0,0,1,3.718,0ZM6.135,3.706A2.424,2.424,0,0,0,1.287,3.7a2.424,2.424,0,1,0,4.849.01Z" transform="translate(18.751 6.461)" fill="#fff"/><path d="M3.721,0A3.709,3.709,0,1,1,0,3.7,3.695,3.695,0,0,1,3.721,0ZM6.137,3.7a2.426,2.426,0,0,0-4.851.008A2.426,2.426,0,1,0,6.137,3.7Z" transform="translate(3.71 6.461)" fill="#fff"/><path d="M1.232,0A1.229,1.229,0,1,1,0,1.241,1.23,1.23,0,0,1,1.232,0Z" transform="translate(21.239 8.936)" fill="#fff"/><path d="M1.241,0a1.24,1.24,0,1,1,0,2.481A1.224,1.224,0,0,1,0,1.233,1.22,1.22,0,0,1,1.241,0Z" transform="translate(6.185 8.926)" fill="#fff"/></g></g></svg>