<svg xmlns="http://www.w3.org/2000/svg" width="46" height="46" viewBox="0 0 46 46"><g transform="translate(-0.041 -36)"><g transform="translate(0.041 36)" fill="#cd201f" stroke="#fff" stroke-width="2"><circle cx="23" cy="23" r="23" stroke="none"/><circle cx="23" cy="23" r="22" fill="none"/></g><path d="M23.555,2.782A3.1,3.1,0,0,0,21.435.544C19.553,0,12.025,0,12.025,0S4.5,0,2.615.523A3.166,3.166,0,0,0,.5,2.782,35.347,35.347,0,0,0,0,8.889,35.217,35.217,0,0,0,.5,15a3.1,3.1,0,0,0,2.12,2.238c1.9.544,9.41.544,9.41.544s7.528,0,9.41-.523a3.1,3.1,0,0,0,2.12-2.238,35.358,35.358,0,0,0,.5-6.107,33.553,33.553,0,0,0-.5-6.128ZM9.628,12.7V5.082l6.26,3.807Zm0,0" transform="translate(14.152 71.025) rotate(-90)" fill="#fff"/></g></svg>