<svg xmlns="http://www.w3.org/2000/svg" width="46" height="46" viewBox="0 0 46 46">
  <defs>
    <style>
      .cls-1 {
        fill: none;
      }

      .cls-2 {
        fill: #fff;
      }
    </style>
  </defs>
  <g id="Twitter" transform="translate(0 -111.744)">
    <path id="Path_1" data-name="Path 1" class="cls-1" d="M23,0A23,23,0,1,1,0,23,23,23,0,0,1,23,0Z" transform="translate(0 111.744)"/>
    <g id="twitter-logo" transform="matrix(-0.208, -0.978, 0.978, -0.208, 16.844, 153.488)">
      <path id="Path_2" data-name="Path 2" class="cls-2" d="M27.032,3.248a.293.293,0,0,1-.065-.049,7.305,7.305,0,0,0-4.582-1.536l-.056-.1a.037.037,0,0,1,.031-.009c1.563-.244,2.1-.185,2.363-.5.085-.263-.038-.412-.381-.46a10.339,10.339,0,0,0-2.16.36c.81-.4,1.119-.694.932-.857-.739-.4-1.731.234-1.819.187a6.55,6.55,0,0,0-1.126.757A8.166,8.166,0,0,0,18.942,2.4l-.019.044a14.492,14.492,0,0,0-2.569,4.319l-.166.1-.031.026c-.689-.7-2.629-2.892-4.169-3.49C10.3,2.653,6.258,1.894,4.54,1.392,4.59,2.938,5.566,4.2,7.456,5.158v.027c-2.05-.332-1.775-.151-1.888.167C5.742,6.791,7.033,7.821,9.43,8.445l-.01.027c-.933-.075-2.6-.245-2.274.695a4.723,4.723,0,0,0,4.234,1.928,2.612,2.612,0,0,0-.89.519.945.945,0,0,0-.322,1.084,2.66,2.66,0,0,0,2.369.955h0l.066.064a.363.363,0,0,1-.031.028,9.237,9.237,0,0,1-7.018,2l-.042.018A10.728,10.728,0,0,1-.024,13.6a18.453,18.453,0,0,0,8.01,5.266,22.735,22.735,0,0,0,11.114.579l.064,0A16.57,16.57,0,0,0,28.1,14.561,8.863,8.863,0,0,0,30.125,10.7q2.811.173,4.007-1.185l-.022-.03a10,10,0,0,1-3.659-.292l-.006-.165c0-.008,0-.008.011,0,1.974-.118,3.124-.6,3.466-1.448a6.743,6.743,0,0,1-4.092-.094A7.442,7.442,0,0,0,27.032,3.248Z"/>
    </g>
  </g>
</svg>
