<svg xmlns="http://www.w3.org/2000/svg" width="46" height="46" viewBox="0 0 46 46"><g transform="translate(0 -111.744)"><g transform="translate(0 111.744)" fill="#2cbee3"><path d="M 23 45 C 20.02957916259766 45 17.14854049682617 44.41846084594727 14.43690967559814 43.27154159545898 C 11.81729030609131 42.16352844238281 9.464409828186035 40.57711029052734 7.443649768829346 38.55635070800781 C 5.422890186309814 36.53559112548828 3.836469888687134 34.18270874023438 2.728460073471069 31.56308937072754 C 1.581539988517761 28.85145950317383 1 25.97042083740234 1 23 C 1 20.02957916259766 1.581539988517761 17.14854049682617 2.728460073471069 14.43690967559814 C 3.836469888687134 11.81729030609131 5.422890186309814 9.464409828186035 7.443649768829346 7.443649768829346 C 9.464409828186035 5.422890186309814 11.81729030609131 3.836469888687134 14.43690967559814 2.728460073471069 C 17.14854049682617 1.581539988517761 20.02957916259766 1 23 1 C 25.97042083740234 1 28.85145950317383 1.581539988517761 31.56308937072754 2.728460073471069 C 34.18270874023438 3.836469888687134 36.53559112548828 5.422890186309814 38.55635070800781 7.443649768829346 C 40.57711029052734 9.464409828186035 42.16352844238281 11.81729030609131 43.27154159545898 14.43690967559814 C 44.41846084594727 17.14854049682617 45 20.02957916259766 45 23 C 45 25.97042083740234 44.41846084594727 28.85145950317383 43.27154159545898 31.56308937072754 C 42.16352844238281 34.18270874023438 40.57711029052734 36.53559112548828 38.55635070800781 38.55635070800781 C 36.53559112548828 40.57711029052734 34.18270874023438 42.16352844238281 31.56308937072754 43.27154159545898 C 28.85145950317383 44.41846084594727 25.97042083740234 45 23 45 Z" stroke="none"/><path d="M 23 2 C 20.16414070129395 2 17.41415977478027 2.554958343505859 14.82646942138672 3.649459838867188 C 12.3260383605957 4.707050323486328 10.08000946044922 6.221511840820313 8.150760650634766 8.150760650634766 C 6.221511840820313 10.08000946044922 4.707050323486328 12.3260383605957 3.649459838867188 14.82646942138672 C 2.554958343505859 17.41415977478027 2 20.16414070129395 2 23 C 2 25.83585929870605 2.554958343505859 28.58583068847656 3.649459838867188 31.17353057861328 C 4.707050323486328 33.67395782470703 6.221511840820313 35.91999053955078 8.150760650634766 37.84923934936523 C 10.08000946044922 39.77848815917969 12.3260383605957 41.29293823242188 14.82646942138672 42.35054016113281 C 17.41415977478027 43.44504165649414 20.16414070129395 44 23 44 C 25.83585929870605 44 28.58583068847656 43.44504165649414 31.17353057861328 42.35054016113281 C 33.67395782470703 41.29293823242188 35.91999053955078 39.77848815917969 37.84923934936523 37.84923934936523 C 39.77848815917969 35.91999053955078 41.29293823242188 33.67395782470703 42.35054016113281 31.17353057861328 C 43.44504165649414 28.58583068847656 44 25.83585929870605 44 23 C 44 20.16414070129395 43.44504165649414 17.41415977478027 42.35054016113281 14.82646942138672 C 41.29293823242188 12.3260383605957 39.77848815917969 10.08000946044922 37.84923934936523 8.150760650634766 C 35.91999053955078 6.221511840820313 33.67395782470703 4.707050323486328 31.17353057861328 3.649459838867188 C 28.58583068847656 2.554958343505859 25.83585929870605 2 23 2 M 23 0 C 35.70254135131836 0 46 10.29745101928711 46 23 C 46 35.70254135131836 35.70254135131836 46 23 46 C 10.29745101928711 46 0 35.70254135131836 0 23 C 0 10.29745101928711 10.29745101928711 0 23 0 Z" stroke="none" fill="#fff"/></g><g transform="matrix(-0.208, -0.978, 0.978, -0.208, 16.809, 153.52)"><path d="M27.057,3.289a.293.293,0,0,1-.065-.049A7.305,7.305,0,0,0,22.409,1.7l-.056-.1a.037.037,0,0,1,.031-.009c1.563-.244,2.1-.185,2.363-.5.085-.263-.038-.412-.381-.46a10.339,10.339,0,0,0-2.16.36c.81-.4,1.119-.694.932-.857-.739-.4-1.731.234-1.819.187a6.55,6.55,0,0,0-1.126.757,8.166,8.166,0,0,0-1.228,1.364l-.019.044a14.492,14.492,0,0,0-2.569,4.319l-.166.1-.031.026c-.689-.7-2.629-2.892-4.169-3.49C10.32,2.693,6.283,1.934,4.564,1.433,4.614,2.978,5.59,4.242,7.48,5.2v.027c-2.05-.332-1.775-.151-1.888.167.173,1.439,1.464,2.469,3.861,3.093l-.01.027c-.933-.075-2.6-.245-2.274.695A4.723,4.723,0,0,0,11.4,11.135a2.612,2.612,0,0,0-.89.519.945.945,0,0,0-.322,1.084,2.66,2.66,0,0,0,2.369.955h0l.066.064a.363.363,0,0,1-.031.028,9.237,9.237,0,0,1-7.018,2l-.042.018A10.728,10.728,0,0,1,0,13.64a18.453,18.453,0,0,0,8.01,5.266,22.735,22.735,0,0,0,11.114.579l.064,0A16.57,16.57,0,0,0,28.123,14.6,8.863,8.863,0,0,0,30.15,10.74q2.811.173,4.007-1.185l-.022-.03a10,10,0,0,1-3.659-.292l-.006-.165c0-.008,0-.008.011,0,1.974-.118,3.124-.6,3.466-1.448a6.743,6.743,0,0,1-4.092-.094A7.442,7.442,0,0,0,27.057,3.289Z" fill="#fff"/></g></g></svg>