<svg xmlns="http://www.w3.org/2000/svg" xmlns:xlink="http://www.w3.org/1999/xlink" width="256" height="41" viewBox="0 0 256 41">
  <defs>
    <linearGradient id="linear-gradient" x1="0.5" y1="0.34" x2="0.5" y2="1" gradientUnits="objectBoundingBox">
      <stop offset="0" stop-color="#9c53a6"/>
      <stop offset="1" stop-color="#3ab34d"/>
    </linearGradient>
  </defs>
  <g id="HorizontalChainbottom" transform="translate(-120 -706.999)">
    <path id="Subtraction_2" data-name="Subtraction 2" d="M6,29.3A15,15,0,0,1-4.607,3.692,14.9,14.9,0,0,1,6-.7c.332,0,.669.011,1,.033V29.266C6.664,29.288,6.327,29.3,6,29.3Z" transform="translate(369 713)" fill="#17a2b8"/>
    <circle id="Ellipse_6" data-name="Ellipse 6" cx="15" cy="15" r="15" transform="translate(330 745.999) rotate(-90)" fill="#9c53a6"/>
    <circle id="Ellipse_1" data-name="Ellipse 1" cx="15" cy="15" r="15" transform="translate(300 747.999) rotate(-90)" fill="#fc22a6"/>
    <circle id="Ellipse_5" data-name="Ellipse 5" cx="15" cy="15" r="15" transform="translate(270 745.999) rotate(-90)" fill="#e4002b"/>
    <circle id="Ellipse_4" data-name="Ellipse 4" cx="15" cy="15" r="15" transform="translate(240 742.299) rotate(-90)" fill="#e4702b"/>
    <circle id="Ellipse_1-2" data-name="Ellipse 1" cx="15" cy="15" r="15" transform="translate(210 738.999) rotate(-90)" fill="#ff8005"/>
    <circle id="Ellipse_3" data-name="Ellipse 3" cx="15" cy="15" r="15" transform="translate(180 736.999) rotate(-90)" fill="#f2b705"/>
    <circle id="Ellipse_1-3" data-name="Ellipse 1" cx="15" cy="15" r="15" transform="translate(150 738.999) rotate(-90)" fill="#76bf2c"/>
    <circle id="Ellipse_2" data-name="Ellipse 2" cx="15" cy="15" r="15" transform="translate(120 742.299) rotate(-90)" fill="url(#linear-gradient)"/>
  </g>
</svg>
